# xmcd
#
# Track frame offsets: 
#        150
#        20927
#        45232
#
# Disc length: 849 seconds
#
# Revision: 1
# Processed by: cddbd v1.5.2PL0 Copyright (c) Steve Scherf et al.
# Submitted via: ExactAudioCopyFreeDBPlugin 1.0
#
DISCID=1d034f03
DTITLE=Arturo - Former
DYEAR=1999
DGENRE=Indie
TTITLE0=Former
TTITLE1=Spring's At Your Heels, Angelo
TTITLE2=Best Ones Fall
EXTD=
EXTT0=
EXTT1=
EXTT2=
PLAYORDER=
